<svg width="1600" height="1000" viewBox="0 0 1600 1000" fill="none" xmlns="http://www.w3.org/2000/svg">
<g clip-path="url(#clip0_4_80)">
<mask id="mask0_4_80" style="mask-type:alpha" maskUnits="userSpaceOnUse" x="21" y="33" width="1407" height="1339">
<path d="M1427.8 33.5371L21.4863 842.068V1127.41L1427.8 1371.98V33.5371Z" fill="black"/>
</mask>
<g mask="url(#mask0_4_80)">
<g filter="url(#filter0_f_4_80)">
<path d="M794.029 344.222C754.902 282.115 891.117 186.228 1098.27 130.053C1305.43 73.877 1505.08 78.6853 1544.21 140.792C1583.33 202.899 1447.12 298.786 1239.96 354.961C1032.81 411.137 833.156 406.328 794.029 344.222Z" fill="#FFE68B"/>
</g>
<g filter="url(#filter1_f_4_80)">
<path d="M9.92632 829.881C-21.8945 742.638 88.8853 607.944 257.36 529.033C425.834 450.123 588.206 456.877 620.027 544.119C651.848 631.362 541.068 766.056 372.593 844.967C204.119 923.877 41.7471 917.123 9.92632 829.881Z" fill="#FFE598"/>
</g>
<g filter="url(#filter2_f_4_80)">
<path d="M229.243 682.029C183.895 580.042 341.769 422.583 581.866 330.335C821.963 238.087 1053.36 245.983 1098.71 347.971C1144.06 449.958 986.184 607.417 746.087 699.665C505.991 791.913 274.592 784.017 229.243 682.029Z" fill="#FEEFD7"/>
</g>
</g>
<mask id="mask1_4_80" style="mask-type:alpha" maskUnits="userSpaceOnUse" x="21" y="70" width="1491" height="1262">
<path d="M1511.77 70.9375L21.4922 861.506V1127.41L1511.77 1331.22V70.9375Z" fill="black"/>
</mask>
<g mask="url(#mask1_4_80)">
<g opacity="0.5" filter="url(#filter3_f_4_80)">
<path d="M912.778 494.501C861.25 403.01 1044.93 259.047 1323.05 172.952C1601.16 86.8568 1868.39 91.2312 1919.92 182.723C1971.44 274.214 1787.76 418.177 1509.64 504.272C1231.53 590.367 964.305 585.993 912.778 494.501Z" fill="#FFD595"/>
</g>
<g filter="url(#filter4_f_4_80)">
<path d="M321.539 708.94C276.105 636.822 434.277 525.479 674.825 460.249C915.373 395.018 1147.21 400.601 1192.64 472.719C1238.07 544.837 1079.9 656.18 839.355 721.411C598.807 786.642 366.973 781.058 321.539 708.94Z" fill="#FFE4B2"/>
</g>
<g filter="url(#filter5_f_4_80)">
<path d="M-187.719 874.184C-233.153 802.066 -74.9811 690.723 165.567 625.493C406.115 560.262 637.95 565.845 683.383 637.963C728.817 710.081 570.646 821.424 330.097 886.655C89.5493 951.886 -142.285 946.302 -187.719 874.184Z" fill="#FFF2DF"/>
</g>
</g>
<mask id="mask2_4_80" style="mask-type:alpha" maskUnits="userSpaceOnUse" x="21" y="128" width="1556" height="1163">
<path d="M1576.47 128.35L21.4966 880.955V1127.42L1576.47 1290.47V128.35Z" fill="black"/>
</mask>
<g mask="url(#mask2_4_80)">
<g opacity="0.7" filter="url(#filter6_f_4_80)">
<path d="M856.522 647.879C816.583 549.134 979.248 379.662 1219.84 269.353C1460.44 159.044 1687.86 149.669 1727.8 248.413C1767.74 347.158 1605.08 516.63 1364.48 626.939C1123.88 737.249 896.462 746.624 856.522 647.879Z" fill="#FFD7A0"/>
</g>
<g filter="url(#filter7_f_4_80)">
<path d="M252.883 681.767C199.192 612.5 388.343 505.559 675.363 442.907C962.382 380.255 1238.58 385.618 1292.27 454.885C1345.96 524.151 1156.81 631.093 869.792 693.744C582.772 756.396 306.573 751.033 252.883 681.767Z" fill="#FFF0BA"/>
</g>
<g filter="url(#filter8_f_4_80)">
<path d="M-94.3128 804.921C-148.003 735.654 41.1478 628.713 328.167 566.061C615.187 503.41 891.387 508.772 945.077 578.039C998.767 647.306 809.616 754.247 522.597 816.899C235.577 879.55 -40.6226 874.188 -94.3128 804.921Z" fill="#FFF5E6"/>
</g>
</g>
<g filter="url(#filter9_f_4_80)">
<ellipse cx="117.429" cy="875.747" rx="347.5" ry="241.903" transform="rotate(-22.0697 117.429 875.747)" fill="#F9F9F9"/>
</g>
<g filter="url(#filter10_f_4_80)">
<circle cx="46.5" cy="894" r="148" fill="#F9F9F9"/>
</g>
<g filter="url(#filter11_f_4_80)">
<rect x="701.586" y="985.236" width="996.471" height="315.027" transform="rotate(-30 701.586 985.236)" fill="#F9F9F9"/>
</g>
</g>
<defs>
<filter id="filter0_f_4_80" x="482.579" y="-213.874" width="1373.08" height="912.762" filterUnits="userSpaceOnUse" color-interpolation-filters="sRGB">
<feFlood flood-opacity="0" result="BackgroundImageFix"/>
<feBlend mode="normal" in="SourceGraphic" in2="BackgroundImageFix" result="shape"/>
<feGaussianBlur stdDeviation="152.375" result="effect1_foregroundBlur_4_80"/>
</filter>
<filter id="filter1_f_4_80" x="-300.273" y="169.251" width="1230.5" height="1035.5" filterUnits="userSpaceOnUse" color-interpolation-filters="sRGB">
<feFlood flood-opacity="0" result="BackgroundImageFix"/>
<feBlend mode="normal" in="SourceGraphic" in2="BackgroundImageFix" result="shape"/>
<feGaussianBlur stdDeviation="152.375" result="effect1_foregroundBlur_4_80"/>
</filter>
<filter id="filter2_f_4_80" x="21.4766" y="66" width="1285" height="898" filterUnits="userSpaceOnUse" color-interpolation-filters="sRGB">
<feFlood flood-opacity="0" result="BackgroundImageFix"/>
<feBlend mode="normal" in="SourceGraphic" in2="BackgroundImageFix" result="shape"/>
<feGaussianBlur stdDeviation="100" result="effect1_foregroundBlur_4_80"/>
</filter>
<filter id="filter3_f_4_80" x="599.368" y="-193.612" width="1633.96" height="1064.45" filterUnits="userSpaceOnUse" color-interpolation-filters="sRGB">
<feFlood flood-opacity="0" result="BackgroundImageFix"/>
<feBlend mode="normal" in="SourceGraphic" in2="BackgroundImageFix" result="shape"/>
<feGaussianBlur stdDeviation="152.375" result="effect1_foregroundBlur_4_80"/>
</filter>
<filter id="filter4_f_4_80" x="9.00873" y="110.007" width="1496.16" height="961.646" filterUnits="userSpaceOnUse" color-interpolation-filters="sRGB">
<feFlood flood-opacity="0" result="BackgroundImageFix"/>
<feBlend mode="normal" in="SourceGraphic" in2="BackgroundImageFix" result="shape"/>
<feGaussianBlur stdDeviation="152.375" result="effect1_foregroundBlur_4_80"/>
</filter>
<filter id="filter5_f_4_80" x="-500.249" y="275.251" width="1496.16" height="961.646" filterUnits="userSpaceOnUse" color-interpolation-filters="sRGB">
<feFlood flood-opacity="0" result="BackgroundImageFix"/>
<feBlend mode="normal" in="SourceGraphic" in2="BackgroundImageFix" result="shape"/>
<feGaussianBlur stdDeviation="152.375" result="effect1_foregroundBlur_4_80"/>
</filter>
<filter id="filter6_f_4_80" x="545.743" y="-124.673" width="1492.84" height="1145.64" filterUnits="userSpaceOnUse" color-interpolation-filters="sRGB">
<feFlood flood-opacity="0" result="BackgroundImageFix"/>
<feBlend mode="normal" in="SourceGraphic" in2="BackgroundImageFix" result="shape"/>
<feGaussianBlur stdDeviation="152.375" result="effect1_foregroundBlur_4_80"/>
</filter>
<filter id="filter7_f_4_80" x="-60.9756" y="94.4638" width="1667.11" height="947.724" filterUnits="userSpaceOnUse" color-interpolation-filters="sRGB">
<feFlood flood-opacity="0" result="BackgroundImageFix"/>
<feBlend mode="normal" in="SourceGraphic" in2="BackgroundImageFix" result="shape"/>
<feGaussianBlur stdDeviation="152.375" result="effect1_foregroundBlur_4_80"/>
</filter>
<filter id="filter8_f_4_80" x="-408.171" y="217.618" width="1667.11" height="947.724" filterUnits="userSpaceOnUse" color-interpolation-filters="sRGB">
<feFlood flood-opacity="0" result="BackgroundImageFix"/>
<feBlend mode="normal" in="SourceGraphic" in2="BackgroundImageFix" result="shape"/>
<feGaussianBlur stdDeviation="152.375" result="effect1_foregroundBlur_4_80"/>
</filter>
<filter id="filter9_f_4_80" x="-717.275" y="116.275" width="1669.41" height="1518.94" filterUnits="userSpaceOnUse" color-interpolation-filters="sRGB">
<feFlood flood-opacity="0" result="BackgroundImageFix"/>
<feBlend mode="normal" in="SourceGraphic" in2="BackgroundImageFix" result="shape"/>
<feGaussianBlur stdDeviation="250" result="effect1_foregroundBlur_4_80"/>
</filter>
<filter id="filter10_f_4_80" x="-301.5" y="546" width="696" height="696" filterUnits="userSpaceOnUse" color-interpolation-filters="sRGB">
<feFlood flood-opacity="0" result="BackgroundImageFix"/>
<feBlend mode="normal" in="SourceGraphic" in2="BackgroundImageFix" result="shape"/>
<feGaussianBlur stdDeviation="100" result="effect1_foregroundBlur_4_80"/>
</filter>
<filter id="filter11_f_4_80" x="501.586" y="287.001" width="1420.48" height="1171.06" filterUnits="userSpaceOnUse" color-interpolation-filters="sRGB">
<feFlood flood-opacity="0" result="BackgroundImageFix"/>
<feBlend mode="normal" in="SourceGraphic" in2="BackgroundImageFix" result="shape"/>
<feGaussianBlur stdDeviation="100" result="effect1_foregroundBlur_4_80"/>
</filter>
<clipPath id="clip0_4_80">
<rect width="2191" height="1258" fill="white" transform="translate(-296)"/>
</clipPath>
</defs>
</svg>
