<svg width="177" height="32" viewBox="0 0 177 32" fill="none" xmlns="http://www.w3.org/2000/svg">
<g clip-path="url(#clip0_4_23)">
<path d="M72.3373 27.4767C66.6253 27.4767 63.4053 24.5927 63.2373 20.3367H67.1293C67.4093 23.0247 69.1733 24.3687 72.3653 24.3687C74.6333 24.3687 76.5093 23.3887 76.5093 21.3167C76.5093 19.0767 74.4373 18.5727 71.1333 17.8167C67.2413 16.9487 63.9933 15.9127 63.9933 11.7407C63.9933 7.79269 67.2413 5.80469 71.6933 5.80469C76.5373 5.80469 79.3373 8.12869 79.7293 11.9647H75.9493C75.6413 9.92069 74.1013 8.77269 71.6373 8.77269C69.3133 8.77269 67.7733 9.75269 67.7733 11.4047C67.7733 13.3367 69.7893 13.8407 73.0093 14.5127C76.8733 15.3527 80.4293 16.5007 80.4293 21.0087C80.4293 25.1527 76.9573 27.4767 72.3373 27.4767Z" fill="black"/>
<path d="M89.6 27.4487C84.84 27.4487 81.984 23.9767 81.984 19.5527C81.984 15.1007 84.98 11.6567 89.404 11.6567C91.588 11.6567 93.296 12.4127 94.556 13.7567C96.012 15.2967 96.712 17.6487 96.684 20.4207H85.512C85.764 22.9967 87.136 24.7327 89.628 24.7327C91.336 24.7327 92.456 24.0047 92.932 22.7727H96.404C95.676 25.4607 93.268 27.4487 89.6 27.4487ZM89.404 14.2327C87.08 14.2327 85.876 15.8287 85.568 18.1807H93.016C92.876 15.7167 91.56 14.2327 89.404 14.2327Z" fill="black"/>
<path d="M108.302 27.0007C108.05 26.6647 107.854 26.0767 107.798 25.0687H107.742C106.762 26.3847 105.418 27.3647 103.038 27.3647C100.126 27.3647 97.9416 25.8527 97.9416 22.9407C97.9416 19.5527 100.518 18.7407 104.074 18.3207C106.538 18.0127 107.77 17.6207 107.77 16.2767C107.77 14.9887 106.874 14.1207 105.082 14.1207C103.094 14.1207 102.114 15.0447 102.03 16.5287H98.6696C98.7816 13.9807 100.798 11.6567 105.054 11.6567C106.762 11.6567 108.078 11.9087 109.058 12.5247C110.458 13.3647 111.186 14.7927 111.186 16.7807V24.6487C111.186 25.8807 111.41 26.5247 111.746 26.7487V27.0007H108.302ZM104.074 24.9287C106.51 24.9287 107.854 23.2487 107.854 21.5687V19.3567C107.154 19.8047 106.034 20.1127 104.942 20.3367C102.758 20.7567 101.498 21.2047 101.498 22.8567C101.498 24.4527 102.702 24.9287 104.074 24.9287Z" fill="black"/>
<path d="M113.913 32.0127V12.0487H117.357V14.2607H117.441C118.505 12.5527 119.989 11.6567 122.089 11.6567C125.981 11.6567 128.529 14.7927 128.529 19.5527C128.529 24.3687 126.009 27.4767 121.977 27.4767C119.989 27.4767 118.365 26.6087 117.441 25.0967H117.357C117.413 25.6567 117.469 26.6087 117.469 28.0087V32.0127H113.913ZM121.305 24.6487C123.657 24.6487 124.917 22.5767 124.917 19.6367C124.917 16.6687 123.713 14.5407 121.277 14.5407C118.589 14.5407 117.329 16.8087 117.329 19.6367C117.329 22.4647 118.561 24.6487 121.305 24.6487Z" fill="black"/>
<path d="M137.358 27.4487C132.71 27.4487 129.714 23.9767 129.714 19.5527C129.714 15.1007 132.71 11.6567 137.358 11.6567C142.006 11.6567 144.946 15.1007 144.946 19.5527C144.946 23.9767 142.006 27.4487 137.358 27.4487ZM137.33 24.7607C139.934 24.7607 141.334 22.5487 141.334 19.5527C141.334 16.5287 139.934 14.2887 137.33 14.2887C134.698 14.2887 133.326 16.5287 133.326 19.5527C133.326 22.5487 134.698 24.7607 137.33 24.7607Z" fill="black"/>
<path d="M146.835 9.61269V6.16869H150.475V9.61269H146.835ZM146.891 27.0007V12.0487H150.447V27.0007H146.891Z" fill="black"/>
<path d="M156.584 12.0487V14.2327H156.668C157.648 12.5807 159.216 11.6567 161.316 11.6567C164.536 11.6567 166.468 13.6447 166.468 16.8647V27.0007H162.912V17.4527C162.912 15.6887 161.876 14.5967 160.056 14.5967C158.068 14.5967 156.668 16.1087 156.668 18.2367V27.0007H153.112V12.0487H156.584Z" fill="black"/>
<path d="M167.871 14.4847V12.0487H170.167V7.28869H173.667V12.0487H176.663V14.4847H173.667V22.8567C173.667 23.9487 174.255 24.2567 175.263 24.2567C175.627 24.2567 176.131 24.2007 176.411 24.1447H176.579V26.9167C175.991 27.0287 175.179 27.1407 174.227 27.1407C171.819 27.1407 170.167 26.2727 170.167 23.6407V14.4847H167.871Z" fill="black"/>
<path d="M59.4756 1.73596L23.3885 18.7643V25.3865L59.4756 29.1705V1.73596Z" fill="url(#paint0_linear_4_23)"/>
<path d="M56.9414 0.867126L22.3558 18.7634V25.3856L56.9414 30.1157V0.867126Z" fill="url(#paint1_linear_4_23)"/>
<path d="M54.2122 0L21.5749 18.7643V25.3864L54.2122 31.0625V0Z" fill="url(#paint2_linear_4_23)"/>
<path d="M0.456055 1.73596L17.4842 18.7643V25.3865L0.456055 29.1705V1.73596Z" fill="url(#paint3_linear_4_23)"/>
<path d="M2.94995 1.73596L18.4766 18.7643V25.3865L2.94995 30.1166V1.73596Z" fill="url(#paint4_linear_4_23)"/>
<path d="M5.49072 1.73596L19.2078 18.7643V25.3865L5.49072 31.0626V1.73596Z" fill="url(#paint5_linear_4_23)"/>
</g>
<defs>
<linearGradient id="paint0_linear_4_23" x1="23.3885" y1="30.0637" x2="59.4756" y2="30.0637" gradientUnits="userSpaceOnUse">
<stop stop-color="#FFD000" stop-opacity="0.8"/>
<stop offset="0.460614" stop-color="#FFC800" stop-opacity="0.24"/>
<stop offset="1" stop-color="#FFC800" stop-opacity="0"/>
</linearGradient>
<linearGradient id="paint1_linear_4_23" x1="22.3558" y1="31.0679" x2="56.9414" y2="31.0679" gradientUnits="userSpaceOnUse">
<stop stop-color="#FFD000" stop-opacity="0.8"/>
<stop offset="0.460614" stop-color="#FFC800" stop-opacity="0.24"/>
<stop offset="1" stop-color="#FFC800" stop-opacity="0"/>
</linearGradient>
<linearGradient id="paint2_linear_4_23" x1="21.5749" y1="32.0738" x2="54.2122" y2="32.0738" gradientUnits="userSpaceOnUse">
<stop stop-color="#FFD000" stop-opacity="0.8"/>
<stop offset="0.460614" stop-color="#FFC800" stop-opacity="0.24"/>
<stop offset="1" stop-color="#FFC800" stop-opacity="0"/>
</linearGradient>
<linearGradient id="paint3_linear_4_23" x1="17.4842" y1="30.0637" x2="0.456055" y2="30.0637" gradientUnits="userSpaceOnUse">
<stop stop-color="#FFD000" stop-opacity="0.8"/>
<stop offset="0.460614" stop-color="#FFC800" stop-opacity="0.24"/>
<stop offset="1" stop-color="#FFC800" stop-opacity="0"/>
</linearGradient>
<linearGradient id="paint4_linear_4_23" x1="18.4766" y1="31.0405" x2="2.94995" y2="31.0405" gradientUnits="userSpaceOnUse">
<stop stop-color="#FFD000" stop-opacity="0.8"/>
<stop offset="0.460614" stop-color="#FFC800" stop-opacity="0.24"/>
<stop offset="1" stop-color="#FFC800" stop-opacity="0"/>
</linearGradient>
<linearGradient id="paint5_linear_4_23" x1="19.2078" y1="32.0173" x2="5.49072" y2="32.0173" gradientUnits="userSpaceOnUse">
<stop stop-color="#FFD000" stop-opacity="0.8"/>
<stop offset="0.460614" stop-color="#FFC800" stop-opacity="0.24"/>
<stop offset="1" stop-color="#FFC800" stop-opacity="0"/>
</linearGradient>
<clipPath id="clip0_4_23">
<rect width="176.137" height="32" fill="white" transform="translate(0.456055)"/>
</clipPath>
</defs>
</svg>
